<svg id="e81c80e3-ffca-4409-ac6c-f047b6621dcf" data-name="avatar-square Immagine" xmlns="http://www.w3.org/2000/svg" viewBox="0 0 1023 1023">
  <g>
    <path d="M708,1022.8H230.1c-1.7-3,.6-5.1,1.9-7.2a707.6,707.6,0,0,1,45.3-64.7c28.7-36.5,59.3-71.5,92.8-103.9,13-12.6,26.9-24.3,40.6-36.2,2.6-2.1,4.9-4.5,7.4-6.8a14,14,0,0,0,4.3-10.2c1-40.3,12.8-77.3,33.2-111.8,2.9-5,5.8-10.1,8.9-15,.2-.3.1-.7-.3-1.3-3.6-.1-7.3,1-11,1.9-20,4.4-39.1,12-58.4,18.8-14.5,5.1-29,10.1-43.7,14.4-7.5,2.2-9.3,1.4-13-5.2-23.2-40.7-51.9-77.4-82.2-113-6.4-7.6-13.4-14.7-20.1-22.2-1.9-2-4.8-4-3-7.2s4.9-1.9,7.6-1.3c13.9,3,27.6,6.4,41.4,9.7,26,6.2,52.4,6.9,79,4.7,1.5-.1,3,0,3.2-2.2,1-7.3,5.7-13,9-19.3,11.4-21.3,26.8-39.3,45-55,8.4-7.3,8.2-7.1,0-14.1-4.6-3.9-8.5-3.9-13.5-1.2-35.9,19.2-69.3,41.9-98.1,70.9l-3.9,3.9c-8.8,8.8-14,8.6-22.6-1-2.7-3.1-2.6-6.3-.5-9.6s5.6-6.6,8.7-9.5c24.5-23.3,52.8-41.1,82.5-56.8,6.6-3.5,13.5-6.6,20.1-10.1s6.5-4.2,1-8.7c-1.1-.9-2.2-1.6-3.2-2.5-3.3-3-6.7-3.3-11-1.7-14.1,5.5-28.8,9.4-43.1,14.5-23.5,8.4-45.8,19-65.8,34.2l-3.3,2.3c-6.3,4.1-9.1,3.8-14.3-1.7s-3.9-7.1.7-10.9c6.4-5.2,13.7-9,20.9-12.8a340.6,340.6,0,0,1,49.9-21.7l40.3-13.4,4.7-1.7c3.2-1.1,3.4-2.6.8-4.8-6.6-5.4-13.8-9.9-21-14.5-12.3-7.9-24.8-15.5-37.2-23.4-6.1-3.8-6.3-6.5-1-11.1a232.4,232.4,0,0,0,44.7-52.2c9.6-15.2,20.4-29.6,31.2-44a29.9,29.9,0,0,0,6.5-19.8c-1-37,3.1-73.5,10.5-109.7,9-43.4,23.3-85.1,40.8-125.7,3.9-9.1,7.7-18.1,11.9-27,2.9-6.2,5.2-6.7,11.2-2.8A719.6,719.6,0,0,1,555,108.9c11.6,16.6,21.4,34.5,30.9,52.5,3.2,6,3.2,6.2,9.6,5.2,21.7-3,43.6-2.3,65.4-2a202.6,202.6,0,0,1,25.8,2.2c4.6.7,7.4-.8,10.3-4.2,11.7-13.8,23.6-27.5,37.2-39.7a546.9,546.9,0,0,1,82.6-61c11.5-6.9,23-13.5,34.8-19.8,3.3-1.8,6.7-4.8,10.6-2.2s2,6.6,1.6,10.2-.2,4.3-.2,6.5c0,21.8-1.8,43.5-3.9,65.2-2.7,27.9-5.3,55.7-9.6,83.4-3.4,20.9-7.4,41.7-14.2,61.7-1.6,4.6-1,8,1.9,12,7.2,9.6,12.6,20.4,18.2,31s12.7,23.8,20.3,35c9.7,14.3,18.1,29.6,29.1,43,4.1,5.1,9.4,9,14.1,13.4s4.6,7.1-.2,11.1-12.7,9.1-18.6,14.3c-2.6,2.3-6.8,4.9-6.3,7.8s5.6,3.4,8.8,4.2c33.9,9,66.7,21.1,98.9,34.8,5.3,2.2,10.3,4.9,15.3,7.5s5.5,5.2,4.9,9.4-.3,7-1.9,10.3-4.3,5.1-8.5,3.5a41.3,41.3,0,0,1-6.5-3.6c-24.1-14.9-48.9-28.7-75.4-38.9-14.1-5.4-28.6-9-43.2-12.5a10.2,10.2,0,0,0-3.5-.3c-2.7.1-4.3,1.8-5.2,4s1.7,3.4,3.2,4.2c16.5,8.5,32.6,17.5,47.8,28.1,19.6,13.7,38.5,28.1,55.6,44.8,7.2,7,6.4,10.7-2.4,15.5-4.4,2.4-8,1.8-11.9-1.3-8.5-6.6-15.4-14.7-23.5-21.7-20-17.5-41.6-32.8-64.1-46.8-4.7-2.9-9.2-5.9-14-8.6-3-1.7-12.1,3-12.4,6.4-.2,1.7,1.3,2.6,2.4,3.5,6.9,6.3,13.6,12.7,20.3,19.2,18.6,18.2,33.1,39.6,48.1,60.6,3.5,4.8,2.6,8-2.3,11.3-11.2,7.5-13.9,7.2-20-4.7A314.2,314.2,0,0,0,861.7,500c-4.4-5.1-9.7-9-14.7-13.5-3-2.8-5.5-2.5-8.6,0a423.4,423.4,0,0,1-50.1,33.9c-19.5,11.5-39.6,22-59.4,32.9-6.1,3.4-12.2,6.8-17.3,12.2,2.8,1.8,5.6,2.2,8.2,3.1,7.2,2.6,14.7,4.5,21.4,8.2,4.9,2.6,6,4.6,4.8,10.1-1.6,8-3.8,15.9-5.6,23.8s-1.7,7.7,5.7,9.6c8.9,2.1,17.7,4.7,26.6,6.9s10.2,5.7,6.4,13.9c-5.1,10.9-9.2,22.2-14.2,33.1-2.3,5-1.2,8.5,2.5,12.4,11.3,12.1,21.6,24.9,32,37.7,5.7,7.1,7.2,14.7,5.4,23.4-4.3,20.8-11.9,40.3-21.1,59.2-.4.9-.8,1.8-1.3,2.7-3.7,7.4-5.7,14.6-5.2,23.4,1.3,19.8-2.8,39-9.3,57.8C760.6,911.6,750.3,931,741,951c-10.1,21.9-19,44.4-28.9,66.4C711.2,1019.6,710.3,1021.7,708,1022.8Z" transform="translate(0 0)" style="fill: #3c0718"/>
    <path d="M465,4.1c-5.8-4.2-5.9-4.2-8.9,2.5-21.4,47.9-40.6,96.5-51.6,148.1a539.1,539.1,0,0,0-11.8,118.1,20.7,20.7,0,0,1-4.4,13.7c-13.2,17.4-25.7,35.3-37.7,53.5s-25.2,32.3-40.7,45.8c-5,4.4-4.8,4.8.9,8.3,18.5,11.6,37.3,22.7,55.1,35.3,2.9,2.1,7.8,4.5,7.3,7.4s-6,3.3-9.4,4.4c-31.1,10.4-62.5,19.8-91.4,35.8-6.6,3.6-13.2,7.1-19.2,11.5-2.4,1.8-5.8,3.8-2.8,7.2,5.1,5.8,6.6,8.7,11.9,4.9,9.3-6.7,18.6-13.5,28.6-19.1,22.4-12.6,46.5-20.6,70.8-28.4,6.3-2,12.6-4.1,18.9-6.4a5.7,5.7,0,0,1,6,.9c3.6,2.9,7.3,5.8,11,8.5s1.5,2.7-.3,4a72.6,72.6,0,0,1-13,7.4c-34.3,16.5-66.8,36-94.5,62.6-3.1,3-6.2,6-9.1,9.3s-2.3,5.8.9,8.6c10.8,9,10.8,8.9,20.7-1.1,31-31.3,66.6-56.1,105.9-75.9,2.7-1.4,4.9-1.3,7.2.7s6.5,5.3,9.9,7.7,2.5,4,0,6.3c-7,6.3-13.9,12.8-20.8,19.4-16.5,15.6-27.5,35-37.7,54.8-1.3,2.5-2,4.9-.1,7.5A269.5,269.5,0,0,1,262,558.6c-7.6-2.2-15.5-3.8-23.3-5.5-1.8-.4-4.2-1.9-5.4.5s1.2,3.3,2.4,4.5a658.3,658.3,0,0,1,49.5,57.5c19.7,25.8,39.6,51.6,54.7,80.4,2.4,4.6,5.4,5,9.9,3.7,27.7-8.3,54.6-19,82.1-28a190.3,190.3,0,0,1,33.5-8.1c.9-.1,1.9-.7,3,.7a352.1,352.1,0,0,0-18.6,31.5c-15,29-24.5,59.7-25.3,92.5-.2,10.1-4,16.8-11.4,22.9-56.7,46.6-105,101.1-148.8,159.7-11.7,15.6-22.4,31.8-32.7,48.4-.6,1.1-1.8,2-1.5,3.5h-128c-1.7-1.7-1.7-3.9-1.8-6.1a369,369,0,0,1,7.9-81.8c12.4-57.2,36.8-109,70.2-156.8,13.6-19.5,27.8-38.6,43.5-56.6,5.9-6.8,12.5-12.9,18.5-19.6,3.5-4,4.2-8,3.1-12.9-2.9-13-7.2-25.6-10.7-38.5-8.1-29.2-14.8-58.7-21.1-88.4C203.3,522,195.8,481.7,191,441c-2.8-23.5-4.7-47-5.9-70.6-1.1-21-1.2-42-.6-62.9,1.3-49,6.7-97.3,22.3-144.1,7.3-21.8,13.9-43.8,23-65a4,4,0,0,0,.3-3.5c-6,7-11.5,13.9-16.6,21.2C185.4,157,163.7,201,147,247.7c-13.2,37-23.7,74.6-29.5,113.5-3.4,23.2-5.9,46.5-7.8,70-2.6,33.7-2.5,67.5-3,101.2-.4,27-1.5,54-.6,81,.8,25-4.9,48.3-16.1,70.3-9.2,18.1-19.7,35.7-32.8,51.3-23,27.3-35.5,59.1-43.1,93.4A428.2,428.2,0,0,0,4.7,898c-.5,7.9-.7,15.7-.9,23.5-.1,3.8-.2,7.7-2.2,11.1a1.1,1.1,0,0,1-1.5.2Q.1,468.9,0,5C0,1.1.5,0,4.8,0H462C463.4,1.2,466.6.8,465,4.1Z" transform="translate(0 0)" style="fill: #fefefe"/>
    <path d="M465,4.1c.1-2.1-1.9-2.7-3-4h556.4c3.8,0,4.6.9,4.6,4.6q-.2,506.9,0,1013.7c0,3.7-.8,4.6-4.6,4.6H708c17.1-41.4,36.7-81.6,54.5-122.6,8.8-20.4,14.6-41.7,13-64-.8-12.3,2.7-22.5,8-32.8a243,243,0,0,0,19.8-56.3c1.9-8.4,0-15.3-5.3-21.8-11.2-13.9-22.5-27.7-34.6-40.7-2.3-2.5-2.7-4.5-1.4-7.5,5.4-12.3,10.6-24.8,15.9-37.2,3.2-7.5,2.5-9-5.6-11.1-10.1-2.6-20.2-5.5-30.4-7.8-4.4-1-5.1-2.7-4-6.8,2.5-9.1,4.3-18.5,6.8-27.6,1.2-4.4.1-6.8-4.1-8.6-9-4-18.4-6.8-27.7-9.8l-5-1.7c5.2-5.8,11.4-9.6,17.8-13.2,27-15.3,55-29,81-46.3,11.2-7.5,22.6-14.7,32.9-23.5,2.4-2.1,3.8-1.9,6.2,0,21.2,16.4,36.2,37.9,50,60.4,4.6,7.4,8.3,15.2,12.6,22.7s5,6.6,11.4,2.8l.4-.3c10.6-6,9.9-5.4,3.4-14.9-19.7-28.6-41.5-55.5-68.3-77.8-2.6-2.2-2.3-3.4.2-5.2s6.1-6.8,9.7-7.5,7,3.6,10.5,5.7c32.7,19.7,63.4,41.7,90.4,68.8l3.7,3.4c5.8,5.4,12.3,4.9,17.5-1.2,2.5-2.9.4-5-1.4-6.9-7.5-7.6-15.5-14.6-23.7-21.4a450.6,450.6,0,0,0-82.1-53.9c-1.9-1-5.5-1.2-5.1-4.3s6.6-7.7,10-6.9c16.7,4.1,33.3,8,49.3,14.6a466.8,466.8,0,0,1,71.1,37.2c11.9,7.4,12.8,6.9,15.8-6.8,1.3-5.8.2-7.6-6.1-10.6-22-10.8-45-19.2-68-27.4-16-5.8-32.3-10.4-48.7-15-2.7-.8-5.2-2-8.3-3.1a66.2,66.2,0,0,1,15-14.9l14.4-10.8c2.9-2.2,3.1-4.6,0-6.8-13.2-9.9-22.1-23.2-31.1-36.7-17.5-25.8-32.1-53.3-47.5-80.4-1.1-2-2.1-4.3-3.7-5.8-5-4.6-4.4-9.3-2.5-15.2,10.7-33.1,15.3-67.4,19.1-101.9,4.4-39.2,8.1-78.5,8.8-118,.1-6-.8-6.7-6.2-3.9-60.3,31.6-115.7,69.8-159.2,123.3-2.7,3.4-5.4,4.2-9.7,3.7-31.6-3.4-63.1-4.2-94.7.2-3.1.5-5.2.2-6.8-3A517,517,0,0,0,517.3,61.8C500.5,42,483.5,22.4,465,4.1Z" transform="translate(0 0)" style="fill: #fefefe"/>
    <path d="M1.1,932.8c.7-12.3,1.3-24.6,2-36.9,1.9-37.6,8.7-74.3,21.6-109.7,6.2-16.7,15.2-31.8,26.1-45.8,17.6-22.6,33.9-46.2,44.4-73.1,6.8-17.4,9.4-35.5,9.4-54.2-.1-58-.7-116,2.6-173.9,5-89.6,25.4-175.3,65-256.1,14.9-30.5,32.3-59.7,53.7-86.2,1-1.2,1.9-2.4,2.9-3.5s2.1-2.4,3.8-1.4.7,2.7.1,3.9c-6.1,14.1-11.1,28.5-16,43-11.3,33-21.2,66.2-25.3,101-2.8,23.8-4.9,47.7-5.4,71.7-1.2,59.8,3.8,119.1,13.8,178,10.8,63.6,24.3,126.7,42.6,188.7,6.5,22.1,6.6,16.6-8,32.5-50.6,55-91.3,116-114.6,187.6-9.5,29.2-15.5,59.2-16.9,90-.5,11.5-1.6,22.9-.8,34.4H4.1c-2.4-2.5-2.3-5.8-2.4-8.9C1,1000.4,1.2,987,.6,973.5V937.7C.6,936.1.2,934.4,1.1,932.8Z" transform="translate(0 0)" style="fill: #3d0718"/>
    <path d="M1.1,973.8l3,49c-3.4.8-4.2-.6-4.1-4,.2-15,.1-30,.1-45C.4,973.3.7,973.3,1.1,973.8Z" transform="translate(0 0)" style="fill: #f5f3f3"/>
    <path d="M1.1,973.8H.1v-41h1Z" transform="translate(0 0)" style="fill: #eeeaeb"/>
    <path d="M757.2,690.7c11.6,12.7,23.2,24.2,31.8,38.2,5.8,9.2,3.9,19.2,2.4,29.1-3.7,25.4-14.9,47.9-26.3,70.3-2.8,5.7-6.3,11-9,16.7s-3.9,3.2-6,0c-7.9-11.7-16.4-23-25.4-33.9-16.7-20.2-37.4-36.1-58.4-51.3-31.4-22.6-66.2-39.1-100.9-55.7-15.3-7.4-30.9-14.2-46.3-21.2a41.9,41.9,0,0,1-11.5-6.9c-2.1-1.8-3.8-3.8-3-6.9s2.5-5.4,5.9-6c5.7-1.1,11.4-2.3,17.2-3.1a14.3,14.3,0,0,0,10.4-7c2.4-3.8,2.5-7.6-1.5-10.6-1.9-1.5-3.3-3.1-3.4-5.7-.1-5.6,2.2-7.3,7.4-5.3,11.2,4.4,20.4,12.4,31,18l4.9,2.5c1.1.4,2.4.5,3.2-.6s.3-2.3-.6-3.2-4.4-5-6.8-7.2c-17-15-29.3-33.6-40.9-52.7-3-5.1-3-5.3,3-5.2,7.5.2,14.9.6,22.4.9a11.1,11.1,0,0,1,4.7,1.7c35.7,19.3,74.3,21.3,113.7,19.8,5.9-.3,11.9-1,17.9-1.4a9.7,9.7,0,0,0,6.6-3c2.4-2.5,2.6-4.9-.2-7.3l-1.9-1.6c-5.8-4.9-5.4-10.8.9-15.4,1.2-.9,2.1-.5,3.2.1l19.7,9.7c2.6,1.3,2.8,3.3,2.2,5.8-2.1,9.3-3.9,18.6-6.2,27.8-1.1,4.7.4,7.4,5,8.6,10.6,2.6,21.3,5.3,32,7.7,3.5.8,4.6,1.6,3.2,5.5-6.3,17.2-12.8,34.3-20.7,50.8-2.2,4.5-5.1,5.8-9.7,6.3a100.2,100.2,0,0,1-61.1-12.1c-12.2-6.6-24.8-12.2-37.3-18.2a30.1,30.1,0,0,0-3.1-1.6c-1.8-.7-4-2.6-5.4-.6s1.2,3.5,2.7,4.6c5.9,4.4,11.8,8.7,17.8,12.8A1001.2,1001.2,0,0,1,728,751.6c6,5.2,7.3,4.8,9.7-2.7,5.8-17.4,11.5-34.7,17.2-52.1C755.5,695.1,756.2,693.4,757.2,690.7Z" transform="translate(0 0)" style="fill: #fe3500"/>
    <path d="M458.9,264c-11.7-74.5-10.1-146.9,12.9-218.2,1.3-.3,1.8,1.2,2.6,2.2a747.3,747.3,0,0,1,97.5,145.7c3,5.8,2.9,5.9-3.8,6.8-41.5,5.8-75.7,24.8-103,56.5Z" transform="translate(0 0)" style="fill: #fac8c5"/>
    <path d="M583,435.1c-27.4,2.4-56-14-69.1-40.2s-16.4-54.5-10.9-83.6c1.5-7.8,3.9-10,11.7-10.3a158.9,158.9,0,0,1,49.9,6c3.1.9,4.3,2.5,4.6,6,2.1,35.2,5.5,70.3,10.8,105.2.7,4.9,2,9.7,3.1,14.6A1.8,1.8,0,0,1,583,435.1Z" transform="translate(0 0)" style="fill: #f8c001"/>
    <path d="M284.3,591.7,271,577.3c7.4,0,13.9-.3,20.4,0,32.5,1.3,65,.2,97.5-.9l19.9-.7a8.6,8.6,0,0,1,7.2,2.8c13,15.5,27.2,29.7,41.7,43.7a14.1,14.1,0,0,1,1.6,2.7A176.2,176.2,0,0,1,433,617a9.6,9.6,0,0,1-2.7-1.3c-15.2-11-33-10-50.4-10.8-1.6-.1-3.6-.4-4.2,1.7s1,2.7,2.2,3.6c8.5,6.9,17.1,13.9,25.7,20.7,3.3,2.5,7.3,2.9,11.3,3.2,15.8,1,31.7-.3,47.5,1.7h.9c2.1.4,5.1-.1,5.5,2.3s-2.5,2.8-4.3,3.6c-5.4,2.5-10.6,5.6-16.4,7.2s-13.2,2.1-19.8,2.4c-12.1.6-24.2,1.8-36.4,1.3a94.1,94.1,0,0,0-15.9.7c-6.1.7-12.1,0-17.1-4-22-17.5-44.3-34.6-67.1-51.1A66.8,66.8,0,0,1,284.3,591.7Z" transform="translate(0 0)" style="fill: #fe3400"/>
    <path d="M383.9,565.8c.7-3.8,2.6-6.7,4.1-9.8,11.4-23.3,26.1-44.1,45.5-61.4,3.4-3.1,6.2-3.7,10.5-1.1,24,14.6,47.7,29.7,70.1,46.7,3.2,2.5,6.2,5.2,7.7,9.1s.5,5.3-3.8,5.4c-12.6.2-25.3,0-37.9,1.1-6.2.6-7.3,2.3-6.3,8.4a122.4,122.4,0,0,1,1.4,20.9c0,4.5-2.2,7.3-6.3,8.5-11.2,3.3-21.5,3.4-29.9-6.8-5.6-7-12.2-13.2-18-20-2.6-3-5.2-4.1-9.1-3.6C402.6,564.3,393.4,565,383.9,565.8Z" transform="translate(0 0)" style="fill: #fefefe"/>
    <path d="M852.5,76.2c-5.5,61.4-7.3,122.7-27.2,182.8-1.9-2.8-2.9-4.2-3.7-5.6-12.2-19.9-28.1-36.2-48.3-48.1-3.6-2.1-4.2-3.7-2.4-7.7,20.1-42.9,46.2-81.9,76.8-118A7.4,7.4,0,0,1,852.5,76.2Z" transform="translate(0 0)" style="fill: #fac8c5"/>
    <path d="M782.1,338.7c2,14.7,1.9,29.5,1.4,44.3-.5,12.5-.4,25-1.5,37.4-.2,2-1.1,4.8,1.8,5.6s3.7-1.9,4.8-3.6c11.1-17.6,17.3-37,20.2-57.5s4.4-41.4.7-62.1c-.3-1.7.1-2.4,1.5-3.1,9.5-4.4,22.6-3.3,25.1,11.6,4.7,28.3,4.4,56.1-7.3,82.9-6.6,15-16.3,27.1-32.6,32.3-7.9,2.5-15.7,1.7-23.4-1.4,2.1-1.9,4.5-3.5,4.5-6.8,0-1.3.1-2.6-1.1-3.6s-2.3.2-3.4.9-8.2,1.3-11.1-.2c1.5,2.4,4.1,2.6,6.4,2.9,4.1.6,5.9,2.6,4.8,6.8-7-1.7-13.5-4.3-19.1-9,1.5-2.6-.1-4.6-1.2-7.2-1.6,3.1,3,4.6,1.2,7.3-5.4-2.7-7.9-7.3-8.5-13a68.7,68.7,0,0,1,2.6-27.4c2.5,1.2,4,3.4,5.4,5.7s1.4,4.5-1.5,5.6-2.6,1.8-1.7,3.8.3,3.5-1.1,4.9-1.9,3.1,0,5.2c1-1.8.4-4.8,3.4-4.8s3.3,2.3,4.1,4.3c1.2,3.6,3.5,6,7.5,6.3a10.1,10.1,0,0,1,3.9,1.7c-3.6-4.9-3.1-6.4,2.2-7.4,3.7-.7,7.2-.6,10.1,2.6-1.3-3.6-1.9-6.7-.5-10.5s-2.2-4.9-5-5.7-4.2-1-5.7-2.8a5,5,0,0,1-.7-6c1.2-2.2,3-1.5,4.7-.5s3.8-.2,4.9-1.9a3.6,3.6,0,0,0-.3-4.6c-1.5-1.6-3.4-.9-5,.3s-4.6,3.7-8,3.5-4.3-.3-5-2.5-2.5-2.6-4.5-.9-4.1,3.5-7.1,2.9a68.5,68.5,0,0,1,5.8-18.3c1.6.5,2,2.1,2.8,3.4s2.4,2.9,3.9,2.6c6.4-1.1,12.4,2.9,18.8.9.5-8.1-1.7-9.8-9.7-7.1-1.7.6-4,1.1-4.6-.4-1.5-4.3-4.7-3.3-7.7-3.3a1.8,1.8,0,0,1-1.7-.9,47.6,47.6,0,0,1,7.2-14.2c3.3,1,5.7,3.4,8.4,5.2s3.2,2,4.7-.5A8.4,8.4,0,0,1,782.1,338.7Z" transform="translate(0 0)" style="fill: #f8c001"/>
    <path d="M583,435.1a16.9,16.9,0,0,1,.1-2.3c4.8,3.3,6.2-.5,7.4-3.8,3.7-9.8,6-20.1,8.4-30.3a427.3,427.3,0,0,0,9.3-64.7c.1-1.3-.7-3.4,1.1-3.9s2.6,1.2,3.7,2.3c10.7,10.4,17.2,23.5,22.2,37.4,4.2,12,7.7,24.1,7.9,37,.1,8-3.4,13.5-10.3,17.4-10.7,6.1-22.7,7.6-34.4,9.8A61.2,61.2,0,0,1,583,435.1Z" transform="translate(0 0)" style="fill: #f8c001"/>
    <path d="M284.3,591.7c15.9,10.3,31.1,21.6,46.1,33.1,9.1,7.1,18.2,14,26.9,21.5a22.8,22.8,0,0,0,18.1,5.3c8.3-.8,16.6-.6,24.9-.7,16,0,31.8-2.4,47.8-1.9-6.9,3.8-14.6,5.6-22,8-22.1,7.3-44.3,14.2-66.5,21.4-3.4,1.1-5.3.6-7.4-2.5-19.8-29.1-43.5-55-66.2-81.8A20.7,20.7,0,0,1,284.3,591.7Z" transform="translate(0 0)" style="fill: #aa475e"/>
    <path d="M488.5,613.3c5.2.1,7-1.8,6.1-7-1.5-8.4-3-16.7-2.6-25.3s2.8-10.6,10.9-11c3.7-.2,7.3-.8,10.9-1,1.8-.1,4.1-.6,4.2,2.1s1.1,4.8-2,6a13.9,13.9,0,0,0-2.8,1.2c-5.1,2.6-5.4,5-.7,8.2a8.1,8.1,0,0,1,3.7,7.6c-.2,8-.3,16-.1,24,.1,4.2-1.3,6.8-5.1,8.7-6.4,3.4-7.2,6.3-4.1,13,5.4,12,.6,21-11.9,22.4-3.9.4-6.5-1.1-8-4.5a60.2,60.2,0,0,1-3.9-14.4c-.6-3.4-.4-6.5,3.3-8.5s3.3-4.6,2.2-7.5-2.5-5.8-3.7-8.7C483,613.9,483.5,613.1,488.5,613.3Z" transform="translate(0 0)" style="fill: #aa475e"/>
    <path d="M748,375l10.1-6.7c1.5-1.1,2.6-.7,2.6,1.2s-1.2,3.9,1.6,4.3,4.9.8,7.1-1.2,3.1-4.1,6.2-3.6c1.5.3,3.9-.6,4.1,1.7s2.4,5.5-.2,6.8-4.3,8.1-8.1,1.3c-.8-1.4-2.1-.3-2.4,1.1-.6,3.3,1.4,5.2,4.1,5.8,9,2.2,9.7,3.3,6.6,11.3-.3.9-.2,1.6.7,2s1.6,2.8,1.5,4.3.9,3.8-1.4,4.2-1.3-1.8-1.9-2.9c-1.4-2.6-9.8-3.4-11.7-1.1s0,1.8.8,2.3a6.9,6.9,0,0,1,2.9,2.7,2.3,2.3,0,0,1-.6,2.7c-.8.6-1.8.6-2.2-.2-1.4-2.7-3.7-2.2-6.2-2.6s-6.2-4.3-6.9-8.2c-.4-2-.8-3.6-2.9-2.9s-.4,2.3.2,3.4.6,2.1-.7,2.1-4.7,1.2-5-1.6-2.6-5.5,2.1-6.8c2.6-.7.6-2.5-.3-3.9s-1.7-4.4,2-4.5,3.8-.8,1.9-3.8-4.5-3.2-4.1-6.4A.6.6,0,0,1,748,375Z" transform="translate(0 0)" style="fill: #f8c001"/>
    <path d="M782.1,338.7c-2.2,2.8-5.7,4.3-7.2,7.8-.3.7-1.7,1.3-2,.6-1.9-4.8-8.4-4.5-10.1-9.4,3.9-8,10-14.1,17.7-19.8C781.2,325.3,782.2,331.9,782.1,338.7Z" transform="translate(0 0)" style="fill: #f8c001"/>
    <path d="M755.6,351.9l5.9-.9c2.3-.3,5-1.9,3.9,3.1-.6,2.7,2.2,1.9,3.8,1,6.6-3.7,11.2-1.5,11.8,5.5.2,3.1-1.2,4-4,4.8s-7.1,0-10.5-1.3a4.2,4.2,0,0,0-1.9-.3c-8,1-8.6.6-10.8-7.1A9.1,9.1,0,0,1,755.6,351.9Z" transform="translate(0 0)" style="fill: #f8c001"/>
    <path d="M772.9,425.1c-1.5-2.4-4.1-4.3-7.7-5.6s-4.7-3.5-6.2-6.1c-.4-.6-.6-1.2.1-1.7a1.5,1.5,0,0,1,2.2.3c1.5,1.7,1.7,5.7,5.6,2.5,1.4-1.2,4.6,2.7,6-1.8.6-2.1,5.4,0,6.4,3,1.4,4.6-1.5,8.9-6.5,9.4Z" transform="translate(0 0)" style="fill: #f8c001"/>
    <path d="M753.8,416.2a20,20,0,0,0-1.6-2.4c-3-3.3-3-3.3.3-7.4,1.5,3.3,6.3,5.7,1.3,9.7Z" transform="translate(0 0)" style="fill: #f8c001"/>
    <path d="M781.7,344.4c0,.8-.4,1.2-1.2,1.1a1.2,1.2,0,0,1-1-1.4c.1-.3.6-.8.9-.8S781.6,343.7,781.7,344.4Z" transform="translate(0 0)" style="fill: #f8c001"/>
  </g>
</svg>